<svg width="186" height="15" viewBox="0 0 186 15" fill="none" xmlns="http://www.w3.org/2000/svg">
<path d="M12.6677 0.0644531V14.7126H10.505V6.99965H2.2246V14.7126H0V0.0644531H2.1628V4.99035H10.505V0.0644531H12.6677Z" fill="#828282"/>
<path d="M17.9202 14.7128C16.8697 14.7128 16.0663 14.4535 15.5102 13.8054C14.8923 13.222 14.5833 12.4443 14.5833 11.472V10.6943C14.5833 9.72203 14.8923 8.94434 15.5102 8.36094C16.0663 7.77764 16.9315 7.45354 17.9202 7.45354H23.6052V7.38874C23.6052 6.22204 22.9872 5.63874 21.7514 5.63874H15.4483V3.69434H21.7514C23.049 3.69434 24.0377 4.08324 24.7792 4.73134C25.459 5.44434 25.8297 6.41654 25.8297 7.64804V11.5368C25.8297 12.5091 25.5207 13.2868 24.841 13.8702C24.2849 14.3887 23.4198 14.648 22.3693 14.648H17.9202V14.7128ZM21.9367 9.39804H18.4762C17.3639 9.39804 16.8079 9.91654 16.8079 10.8887V11.2776C16.8079 12.2498 17.3639 12.7683 18.4762 12.7683H21.9367C23.049 12.7683 23.667 12.3146 23.667 11.2776V10.8887C23.667 9.91654 23.049 9.39804 21.9367 9.39804Z" fill="#828282"/>
<path d="M32.2563 3.69434H34.4191C35.7785 3.69434 36.829 4.08324 37.6323 4.92574C38.3739 5.76834 38.8064 6.93504 38.8064 8.36094V14.648H36.6436V8.42574C36.6436 7.51834 36.4583 6.80544 36.1493 6.41654C35.7167 5.89804 35.0988 5.57394 34.2955 5.57394H32.4417C31.6384 5.57394 31.0822 5.83314 30.5879 6.41654C30.2789 6.80544 30.0935 7.51834 30.0935 8.42574V14.648H27.9307V8.36094C27.9307 6.87024 28.3015 5.76834 29.1048 4.92574C29.7845 4.08324 30.8968 3.69434 32.2563 3.69434Z" fill="#828282"/>
<path d="M48.8787 13.222C48.0754 14.1943 47.1485 14.7128 45.9743 14.7128H44.615C43.3791 14.7128 42.4522 14.3239 41.7107 13.4813C41.0309 12.7035 40.6602 11.6665 40.6602 10.3054V3.69434H42.823V10.3054C42.823 11.0831 43.0083 11.7313 43.3173 12.0554C43.6881 12.4443 44.1824 12.7035 44.8004 12.7035H45.7272C46.3451 12.7035 46.8395 12.5091 47.2103 12.0554C47.5193 11.6665 47.7047 11.0831 47.7047 10.3054V3.69434H49.8674V10.3054C49.8674 11.0831 50.0528 11.7313 50.3618 12.0554C50.7325 12.4443 51.2268 12.7035 51.8447 12.7035H52.7718C53.3898 12.7035 53.8838 12.5091 54.2548 12.0554C54.5638 11.6665 54.7487 11.0831 54.7487 10.3054V3.69434H56.9118V10.3054C56.9118 11.6665 56.5408 12.7683 55.8618 13.4813C55.1198 14.2591 54.1927 14.7128 52.9567 14.7128H51.5978C50.609 14.7128 49.6203 14.1943 48.8787 13.222Z" fill="#828282"/>
<path d="M63.4619 5.6389C62.6589 5.6389 62.1029 5.8982 61.6079 6.4815C61.2989 6.8704 61.1139 7.5833 61.1139 8.4907V14.713H58.9509V0H61.1139V4.3426C61.7319 3.8889 62.4729 3.6945 63.2769 3.6945H65.4399C66.7989 3.6945 67.8489 4.0833 68.6529 4.9259C69.3939 5.7685 69.8269 6.9352 69.8269 8.3611V14.6481H67.6639V8.4259C67.6639 7.5185 67.4789 6.8056 67.1699 6.4167C66.7369 5.8982 66.1189 5.5741 65.3159 5.5741H63.4619V5.6389Z" fill="#828282"/>
<path d="M75.0179 14.7128C73.9669 14.7128 73.1639 14.4535 72.6079 13.8054C71.9899 13.222 71.6809 12.4443 71.6809 11.472V10.6943C71.6809 9.72203 71.9899 8.94434 72.6079 8.36094C73.1639 7.77764 74.0289 7.45354 75.0179 7.45354H80.7029V7.38874C80.7029 6.22204 80.0849 5.63874 78.8489 5.63874H72.4839V3.69434H78.7869C80.0849 3.69434 81.0729 4.08324 81.8149 4.73134C82.4949 5.44434 82.8649 6.41654 82.8649 7.64804V11.5368C82.8649 12.5091 82.5559 13.2868 81.8769 13.8702C81.3209 14.3887 80.4549 14.648 79.4049 14.648H75.0179V14.7128ZM78.9719 9.39804H75.5119C74.3999 9.39804 73.8439 9.91654 73.8439 10.8887V11.2776C73.8439 12.2498 74.3999 12.7683 75.5119 12.7683H78.9719C80.0849 12.7683 80.7029 12.3146 80.7029 11.2776V10.8887C80.7029 9.91654 80.1459 9.39804 78.9719 9.39804Z" fill="#828282"/>
<path d="M100.538 0.0644531V2.07375H92.9998C91.6398 2.07375 90.8988 2.65705 90.8988 3.69405V4.66635C90.8988 5.76815 91.5778 6.28665 92.9378 6.28665H97.0158C98.3758 6.28665 99.3638 6.61075 100.106 7.25895C100.847 7.90705 101.218 8.81445 101.218 9.85145V11.2126C101.218 12.2497 100.847 13.1571 100.106 13.8052C99.4258 14.4534 98.3758 14.7775 97.0158 14.7775H89.2298V12.7682H96.8928C98.3138 12.7682 98.9938 12.2497 98.9938 11.1478V9.98115C98.9938 8.87925 98.3138 8.36075 96.8928 8.36075H92.8138C91.4548 8.36075 90.4038 8.03665 89.7238 7.38855C88.9828 6.74035 88.6738 5.89775 88.6738 4.79595V3.62925C88.6738 2.59225 89.0448 1.68485 89.7238 1.03665C90.4038 0.388553 91.4548 0.0644531 92.8138 0.0644531H100.538Z" fill="#828282"/>
<path d="M110.549 14.7128H107.336C106.038 14.7128 104.987 14.3239 104.246 13.5461C103.504 12.7683 103.134 11.6665 103.134 10.2406V8.16654C103.134 6.74064 103.504 5.63874 104.246 4.86094C104.987 4.08324 105.976 3.69434 107.336 3.69434H110.549C111.847 3.69434 112.897 4.14804 113.639 4.86094C114.38 5.63874 114.751 6.74064 114.751 8.16654V10.2406C114.751 11.6665 114.38 12.7683 113.639 13.5461C112.897 14.3239 111.847 14.7128 110.549 14.7128ZM110.364 12.7683C111.105 12.7683 111.723 12.5091 112.094 11.9906C112.403 11.5368 112.526 10.9535 112.526 10.1109V8.29614C112.526 7.45354 112.341 6.80544 112.094 6.41654C111.723 5.89804 111.167 5.63874 110.364 5.63874H107.459C106.718 5.63874 106.1 5.89804 105.729 6.41654C105.42 6.87024 105.296 7.45354 105.296 8.29614V10.1109C105.296 10.9535 105.42 11.5368 105.729 11.9906C106.1 12.5091 106.656 12.7683 107.459 12.7683H110.364Z" fill="#828282"/>
<path d="M116.852 14.713V0H119.077V14.713H116.852Z" fill="#828282"/>
<path d="M125.565 14.7128C124.205 14.7128 123.155 14.3239 122.352 13.4813C121.548 12.7035 121.178 11.5368 121.178 10.0461V3.69434H123.402V9.91654C123.402 10.8239 123.526 11.5368 123.896 11.9257C124.329 12.4443 124.947 12.7035 125.75 12.7035H127.604C128.407 12.7035 129.025 12.4443 129.458 11.9257C129.767 11.472 129.952 10.8239 129.952 9.91654V3.69434H132.177V10.0461C132.177 11.5368 131.744 12.7035 131.003 13.4813C130.199 14.3239 129.149 14.7128 127.789 14.7128H125.565Z" fill="#828282"/>
<path d="M139.036 3.69445H142.311V5.63885H139.036V14.7777H136.811V5.63885H133.536V3.69445H136.811V1.23145H139.036V3.69445Z" fill="#828282"/>
<path d="M146.451 1.49035C146.451 1.94405 146.328 2.26815 146.019 2.52745C145.71 2.78665 145.401 2.91635 144.968 2.91635C144.535 2.91635 144.227 2.78665 143.979 2.52745C143.67 2.26815 143.547 1.94405 143.547 1.49035C143.547 1.03665 143.67 0.712653 143.979 0.453353C144.227 0.194053 144.535 0.0644531 144.968 0.0644531C145.401 0.0644531 145.71 0.194053 146.019 0.453353C146.328 0.712653 146.451 1.03665 146.451 1.49035ZM143.918 3.69405H146.142V14.7775H143.918V3.69405Z" fill="#828282"/>
<path d="M155.658 14.7128H152.445C151.147 14.7128 150.097 14.3239 149.355 13.5461C148.614 12.7683 148.243 11.6665 148.243 10.2406V8.16654C148.243 6.74064 148.614 5.63874 149.355 4.86094C150.097 4.08324 151.086 3.69434 152.445 3.69434H155.658C156.956 3.69434 158.006 4.14804 158.748 4.86094C159.489 5.63874 159.86 6.74064 159.86 8.16654V10.2406C159.86 11.6665 159.489 12.7683 158.748 13.5461C158.006 14.3239 157.018 14.7128 155.658 14.7128ZM155.535 12.7683C156.276 12.7683 156.894 12.5091 157.265 11.9906C157.574 11.5368 157.697 10.9535 157.697 10.1109V8.29614C157.697 7.45354 157.512 6.80544 157.265 6.41654C156.894 5.89804 156.338 5.63874 155.535 5.63874H152.63C151.889 5.63874 151.271 5.89804 150.9 6.41654C150.591 6.87024 150.468 7.45354 150.468 8.29614V10.1109C150.468 10.9535 150.591 11.5368 150.9 11.9906C151.271 12.5091 151.827 12.7683 152.63 12.7683H155.535Z" fill="#828282"/>
<path d="M166.163 3.69434H168.326C169.686 3.69434 170.736 4.14804 171.539 4.92574C172.281 5.76834 172.713 6.93504 172.713 8.42574V14.7776H170.551V8.55544C170.551 7.64804 170.365 6.93504 170.056 6.54614C169.624 6.02764 169.006 5.70354 168.202 5.70354H166.349C165.545 5.70354 164.989 5.96284 164.495 6.54614C164.186 6.99984 164 7.64804 164 8.55544V14.7776H161.776V8.42574C161.776 6.93504 162.147 5.76834 162.95 4.92574C163.753 4.14804 164.804 3.69434 166.163 3.69434Z" fill="#828282"/>
<path d="M181.735 8.23134C182.909 8.23134 183.774 8.42574 184.331 8.81464C185.01 9.33314 185.381 10.0461 185.381 11.0831V11.9257C185.381 12.9628 185.01 13.7406 184.331 14.1943C183.774 14.5831 182.909 14.7776 181.735 14.7776H174.753V12.7683H181.735C182.662 12.7683 183.157 12.4443 183.157 11.7313V11.2776C183.157 10.5646 182.662 10.2406 181.735 10.2406H178.089C176.915 10.2406 176.05 10.0461 175.494 9.65724C174.814 9.20354 174.444 8.42574 174.444 7.38874V6.54614C174.444 5.50914 174.753 4.73134 175.494 4.27764C176.05 3.88874 176.915 3.69434 178.089 3.69434H184.763V5.70354H178.089C177.163 5.70354 176.668 6.09244 176.668 6.74064V7.19433C176.668 7.90723 177.101 8.23134 178.089 8.23134H181.735Z" fill="#828282"/>
</svg>
