<svg width="236" height="35" viewBox="0 0 236 35" fill="none" xmlns="http://www.w3.org/2000/svg">
<path d="M14.3674 17.9479C13.8691 13.3822 18.6649 9.74198 25.1422 9.80368C31.5573 9.86537 37.225 13.5673 37.7233 18.133C38.2215 22.6987 33.4258 26.339 27.0107 26.2773C20.471 26.2156 14.8656 22.4519 14.3674 17.9479ZM38.9066 19.3053C38.3461 13.6907 31.8687 9.06329 24.4571 9.00159C16.9832 8.93989 11.4401 13.5056 12.0629 19.1202C12.6235 24.7348 19.1008 29.3622 26.5124 29.4239C33.9241 29.4856 39.4672 24.9816 38.9066 19.3053Z" fill="#FBB584"/>
<path d="M27.6956 29.5473C24.0209 33.311 18.1664 33.6195 14.6163 30.226C11.0662 26.8326 11.1285 21.0329 14.7409 17.2693C18.4155 13.5056 24.2701 13.1971 27.8202 16.5906C31.3703 19.984 31.308 25.7837 27.6956 29.5473ZM14.1803 17.1459C9.94515 21.5265 9.88287 28.3134 13.9935 32.2621C18.1664 36.2108 24.9552 35.8406 29.1904 31.46C33.4256 27.0794 33.4879 20.2925 29.3772 16.3438C25.2043 12.3951 18.4155 12.7653 14.1803 17.1459Z" fill="#F89B6C"/>
<path d="M14.554 3.01682C22.1525 0.178673 29.6264 3.07852 31.308 9.3718C32.9897 15.7268 28.1939 23.1306 20.5954 25.9688C12.997 28.7452 5.46081 25.9071 3.84147 19.5521C2.15984 13.2588 6.95559 5.85497 14.554 3.01682ZM7.51613 5.42308C-0.331457 11.593 -2.38678 20.5393 3.0318 25.4135C8.45037 30.2877 19.2252 29.2388 27.0728 23.0072C34.9827 16.8374 36.9757 7.89103 31.5572 3.01682C26.1386 -1.79569 15.3637 -0.746809 7.51613 5.42308Z" fill="#F37321"/>
<path d="M61.2868 10.1759V24.824H59.1241V17.1111H50.8437V24.824H48.6191V10.1759H50.7819V15.1018H59.1241V10.1759H61.2868Z" fill="white"/>
<path d="M66.5393 24.8241C65.4888 24.8241 64.6854 24.5648 64.1293 23.9167C63.5114 23.3333 63.2024 22.5556 63.2024 21.5833V20.8056C63.2024 19.8333 63.5114 19.0556 64.1293 18.4722C64.6854 17.8889 65.5506 17.5648 66.5393 17.5648H72.2243V17.5C72.2243 16.3333 71.6063 15.75 70.3705 15.75H64.0675V13.8056H70.3705C71.6681 13.8056 72.6568 14.1945 73.3983 14.8426C74.0781 15.5556 74.4488 16.5278 74.4488 17.7593V21.6481C74.4488 22.6204 74.1399 23.3981 73.4601 23.9815C72.904 24.5 72.0389 24.7593 70.9884 24.7593H66.5393V24.8241ZM70.5558 19.5093H67.0954C65.9831 19.5093 65.427 20.0278 65.427 21V21.3889C65.427 22.3611 65.9831 22.8796 67.0954 22.8796H70.5558C71.6681 22.8796 72.2861 22.4259 72.2861 21.3889V21C72.2861 20.0278 71.6681 19.5093 70.5558 19.5093Z" fill="white"/>
<path d="M80.8754 13.8056H83.0382C84.3976 13.8056 85.4481 14.1945 86.2514 15.037C86.993 15.8796 87.4255 17.0463 87.4255 18.4722V24.7593H85.2627V18.537C85.2627 17.6296 85.0774 16.9167 84.7684 16.5278C84.3358 16.0093 83.7179 15.6852 82.9146 15.6852H81.0608C80.2575 15.6852 79.7013 15.9444 79.207 16.5278C78.898 16.9167 78.7126 17.6296 78.7126 18.537V24.7593H76.5498V18.4722C76.5498 16.9815 76.9206 15.8796 77.7239 15.037C78.4036 14.1945 79.5159 13.8056 80.8754 13.8056Z" fill="white"/>
<path d="M97.4978 23.3333C96.6945 24.3056 95.7676 24.8241 94.5935 24.8241H93.2341C91.9982 24.8241 91.0713 24.4352 90.3298 23.5926C89.65 22.8148 89.2793 21.7778 89.2793 20.4167V13.8056H91.4421V20.4167C91.4421 21.1944 91.6274 21.8426 91.9364 22.1667C92.3072 22.5556 92.8015 22.8148 93.4195 22.8148H94.3464C94.9643 22.8148 95.4586 22.6204 95.8294 22.1667C96.1384 21.7778 96.3238 21.1944 96.3238 20.4167V13.8056H98.4865V20.4167C98.4865 21.1944 98.6719 21.8426 98.9809 22.1667C99.3516 22.5556 99.846 22.8148 100.464 22.8148H101.391C102.009 22.8148 102.503 22.6204 102.874 22.1667C103.183 21.7778 103.368 21.1944 103.368 20.4167V13.8056H105.531V20.4167C105.531 21.7778 105.16 22.8796 104.481 23.5926C103.739 24.3704 102.812 24.8241 101.576 24.8241H100.217C99.2281 24.8241 98.2394 24.3056 97.4978 23.3333Z" fill="white"/>
<path d="M112.081 15.75C111.278 15.75 110.722 16.0093 110.227 16.5926C109.918 16.9815 109.733 17.6944 109.733 18.6018V24.8241H107.57V10.1111H109.733V14.4537C110.351 14 111.092 13.8056 111.896 13.8056H114.059C115.418 13.8056 116.468 14.1944 117.272 15.037C118.013 15.8796 118.446 17.0463 118.446 18.4722V24.7592H116.283V18.537C116.283 17.6296 116.098 16.9167 115.789 16.5278C115.356 16.0093 114.738 15.6852 113.935 15.6852H112.081V15.75Z" fill="white"/>
<path d="M123.637 24.8241C122.586 24.8241 121.783 24.5648 121.227 23.9167C120.609 23.3333 120.3 22.5556 120.3 21.5833V20.8056C120.3 19.8333 120.609 19.0556 121.227 18.4722C121.783 17.8889 122.648 17.5648 123.637 17.5648H129.322V17.5C129.322 16.3333 128.704 15.75 127.468 15.75H121.103V13.8056H127.406C128.704 13.8056 129.692 14.1945 130.434 14.8426C131.114 15.5556 131.484 16.5278 131.484 17.7593V21.6481C131.484 22.6204 131.175 23.3981 130.496 23.9815C129.94 24.5 129.074 24.7593 128.024 24.7593H123.637V24.8241ZM127.591 19.5093H124.131C123.019 19.5093 122.463 20.0278 122.463 21V21.3889C122.463 22.3611 123.019 22.8796 124.131 22.8796H127.591C128.704 22.8796 129.322 22.4259 129.322 21.3889V21C129.322 20.0278 128.765 19.5093 127.591 19.5093Z" fill="white"/>
<path d="M149.157 10.1759V12.1852H141.619C140.259 12.1852 139.518 12.7685 139.518 13.8055V14.7778C139.518 15.8796 140.197 16.3981 141.557 16.3981H145.635C146.995 16.3981 147.983 16.7222 148.725 17.3704C149.466 18.0185 149.837 18.9259 149.837 19.9629V21.324C149.837 22.3611 149.466 23.2685 148.725 23.9166C148.045 24.5648 146.995 24.8889 145.635 24.8889H137.849V22.8796H145.512C146.933 22.8796 147.613 22.3611 147.613 21.2592V20.0926C147.613 18.9907 146.933 18.4722 145.512 18.4722H141.433C140.074 18.4722 139.023 18.1481 138.343 17.5C137.602 16.8518 137.293 16.0092 137.293 14.9074V13.7407C137.293 12.7037 137.664 11.7963 138.343 11.1481C139.023 10.5 140.074 10.1759 141.433 10.1759H149.157Z" fill="white"/>
<path d="M159.168 24.8241H155.955C154.657 24.8241 153.606 24.4352 152.865 23.6574C152.123 22.8796 151.753 21.7778 151.753 20.3519V18.2778C151.753 16.8519 152.123 15.75 152.865 14.9722C153.606 14.1945 154.595 13.8056 155.955 13.8056H159.168C160.466 13.8056 161.516 14.2593 162.258 14.9722C162.999 15.75 163.37 16.8519 163.37 18.2778V20.3519C163.37 21.7778 162.999 22.8796 162.258 23.6574C161.516 24.4352 160.466 24.8241 159.168 24.8241ZM158.983 22.8796C159.724 22.8796 160.342 22.6204 160.713 22.1019C161.022 21.6481 161.145 21.0648 161.145 20.2222V18.4074C161.145 17.5648 160.96 16.9167 160.713 16.5278C160.342 16.0093 159.786 15.75 158.983 15.75H156.078C155.337 15.75 154.719 16.0093 154.348 16.5278C154.039 16.9815 153.915 17.5648 153.915 18.4074V20.2222C153.915 21.0648 154.039 21.6481 154.348 22.1019C154.719 22.6204 155.275 22.8796 156.078 22.8796H158.983Z" fill="white"/>
<path d="M165.471 24.8241V10.1111H167.696V24.8241H165.471Z" fill="white"/>
<path d="M174.184 24.8241C172.824 24.8241 171.774 24.4352 170.971 23.5926C170.167 22.8148 169.797 21.6481 169.797 20.1574V13.8056H172.021V20.0278C172.021 20.9352 172.145 21.6481 172.515 22.037C172.948 22.5556 173.566 22.8148 174.369 22.8148H176.223C177.026 22.8148 177.644 22.5556 178.077 22.037C178.386 21.5833 178.571 20.9352 178.571 20.0278V13.8056H180.796V20.1574C180.796 21.6481 180.363 22.8148 179.622 23.5926C178.818 24.4352 177.768 24.8241 176.408 24.8241H174.184Z" fill="white"/>
<path d="M187.655 13.8056H190.93V15.75H187.655V24.8889H185.43V15.75H182.155V13.8056H185.43V11.3426H187.655V13.8056Z" fill="white"/>
<path d="M195.07 11.6018C195.07 12.0555 194.947 12.3796 194.638 12.6389C194.329 12.8981 194.02 13.0278 193.587 13.0278C193.154 13.0278 192.846 12.8981 192.598 12.6389C192.289 12.3796 192.166 12.0555 192.166 11.6018C192.166 11.1481 192.289 10.8241 192.598 10.5648C192.846 10.3055 193.154 10.1759 193.587 10.1759C194.02 10.1759 194.329 10.3055 194.638 10.5648C194.947 10.8241 195.07 11.1481 195.07 11.6018ZM192.537 13.8055H194.761V24.8889H192.537V13.8055Z" fill="white"/>
<path d="M204.277 24.8241H201.064C199.766 24.8241 198.716 24.4352 197.974 23.6574C197.233 22.8796 196.862 21.7778 196.862 20.3519V18.2778C196.862 16.8519 197.233 15.75 197.974 14.9722C198.716 14.1945 199.705 13.8056 201.064 13.8056H204.277C205.575 13.8056 206.625 14.2593 207.367 14.9722C208.108 15.75 208.479 16.8519 208.479 18.2778V20.3519C208.479 21.7778 208.108 22.8796 207.367 23.6574C206.625 24.4352 205.637 24.8241 204.277 24.8241ZM204.154 22.8796C204.895 22.8796 205.513 22.6204 205.884 22.1019C206.193 21.6481 206.316 21.0648 206.316 20.2222V18.4074C206.316 17.5648 206.131 16.9167 205.884 16.5278C205.513 16.0093 204.957 15.75 204.154 15.75H201.249C200.508 15.75 199.89 16.0093 199.519 16.5278C199.21 16.9815 199.087 17.5648 199.087 18.4074V20.2222C199.087 21.0648 199.21 21.6481 199.519 22.1019C199.89 22.6204 200.446 22.8796 201.249 22.8796H204.154Z" fill="white"/>
<path d="M214.782 13.8056H216.945C218.305 13.8056 219.355 14.2593 220.158 15.037C220.9 15.8796 221.332 17.0463 221.332 18.537V24.8889H219.17V18.6667C219.17 17.7593 218.984 17.0463 218.675 16.6574C218.243 16.1389 217.625 15.8148 216.821 15.8148H214.968C214.164 15.8148 213.608 16.0741 213.114 16.6574C212.805 17.1111 212.619 17.7593 212.619 18.6667V24.8889H210.395V18.537C210.395 17.0463 210.766 15.8796 211.569 15.037C212.372 14.2593 213.423 13.8056 214.782 13.8056Z" fill="white"/>
<path d="M230.354 18.3426C231.528 18.3426 232.393 18.537 232.95 18.9259C233.629 19.4444 234 20.1574 234 21.1944V22.037C234 23.0741 233.629 23.8519 232.95 24.3056C232.393 24.6944 231.528 24.8889 230.354 24.8889H223.372V22.8796H230.354C231.281 22.8796 231.776 22.5556 231.776 21.8426V21.3889C231.776 20.6759 231.281 20.3519 230.354 20.3519H226.708C225.534 20.3519 224.669 20.1574 224.113 19.7685C223.433 19.3148 223.063 18.537 223.063 17.5V16.6574C223.063 15.6204 223.372 14.8426 224.113 14.3889C224.669 14 225.534 13.8056 226.708 13.8056H233.382V15.8148H226.708C225.782 15.8148 225.287 16.2037 225.287 16.8519V17.3056C225.287 18.0185 225.72 18.3426 226.708 18.3426H230.354Z" fill="white"/>
</svg>
